<?xml version="1.0" encoding="UTF-8"?>
<svg id="Calque_1" data-name="Calque 1" xmlns="http://www.w3.org/2000/svg" viewBox="0 0 390.35 132.57">
  <defs>
    <style>
      .cls-1 {
        fill: #b5c933;
      }

      .cls-1, .cls-2 {
        stroke-width: 0px;
      }

      .cls-2 {
        fill: #000;
      }
    </style>
  </defs>
  <path class="cls-2" d="M78.62,78.56v9.53h-35.01v-43.61h34.2v9.53h-21.99v7.35h19.38v9.22h-19.38v7.97h22.8Z"/>
  <path class="cls-2" d="M116.25,79.62h-18.44l-3.43,8.47h-12.58l19.25-43.61h12.15l19.31,43.61h-12.83l-3.43-8.47ZM112.64,70.52l-5.61-13.96-5.61,13.96h11.21Z"/>
  <path class="cls-2" d="M142.6,87.66c-3.32-.87-6.02-2.03-8.1-3.49l4.05-9.1c1.95,1.29,4.22,2.33,6.79,3.12,2.57.79,5.11,1.18,7.6,1.18,4.73,0,7.1-1.18,7.1-3.55,0-1.25-.68-2.17-2.02-2.77-1.35-.6-3.52-1.24-6.51-1.9-3.28-.71-6.02-1.46-8.22-2.27-2.2-.81-4.09-2.11-5.67-3.89-1.58-1.79-2.37-4.19-2.37-7.23,0-2.66.73-5.06,2.18-7.2,1.45-2.14,3.62-3.83,6.51-5.08,2.89-1.25,6.43-1.87,10.62-1.87,2.87,0,5.69.32,8.47.97,2.78.64,5.23,1.59,7.35,2.83l-3.8,9.16c-4.15-2.24-8.18-3.36-12.09-3.36-2.45,0-4.24.36-5.36,1.09-1.12.73-1.68,1.67-1.68,2.83s.66,2.04,1.99,2.62c1.33.58,3.47,1.18,6.42,1.81,3.32.71,6.07,1.46,8.25,2.27s4.07,2.1,5.67,3.86c1.6,1.77,2.4,4.16,2.4,7.2,0,2.62-.73,4.98-2.18,7.1-1.45,2.12-3.63,3.81-6.54,5.08-2.91,1.27-6.44,1.9-10.59,1.9-3.53,0-6.96-.44-10.28-1.31Z"/>
  <path class="cls-2" d="M201.85,72.45v15.64h-12.34v-15.82l-16.63-27.79h13.02l10.34,17.32,10.34-17.32h11.96l-16.7,27.97Z"/>
  <g>
    <rect class="cls-1" x="265.56" y="44.48" width="22.12" height="9.77"/>
    <rect class="cls-1" x="265.56" y="78.32" width="30.53" height="9.77"/>
    <rect class="cls-1" x="265.56" y="61.4" width="13.75" height="9.77"/>
  </g>
  <path class="cls-2" d="M233.65,54.26h-13.4v-9.78h39.07v9.78h-13.33v33.83h-12.34v-33.83Z"/>
  <path class="cls-2" d="M310.07,86.04c-3.67-1.95-6.56-4.65-8.66-8.1-2.1-3.45-3.15-7.33-3.15-11.65s1.05-8.2,3.15-11.65c2.1-3.45,4.98-6.15,8.66-8.1,3.68-1.95,7.82-2.93,12.43-2.93s8.75.98,12.43,2.93c3.68,1.95,6.56,4.65,8.66,8.1,2.1,3.45,3.15,7.33,3.15,11.65s-1.05,8.2-3.15,11.65c-2.1,3.45-4.98,6.15-8.66,8.1-3.67,1.95-7.82,2.93-12.43,2.93s-8.75-.98-12.43-2.93ZM328.49,77.19c1.78-1.04,3.2-2.5,4.24-4.39,1.04-1.89,1.56-4.06,1.56-6.51s-.52-4.62-1.56-6.51c-1.04-1.89-2.45-3.35-4.24-4.39-1.79-1.04-3.78-1.56-5.98-1.56s-4.19.52-5.98,1.56c-1.79,1.04-3.2,2.5-4.24,4.39-1.04,1.89-1.56,4.06-1.56,6.51s.52,4.62,1.56,6.51c1.04,1.89,2.45,3.36,4.24,4.39,1.79,1.04,3.78,1.56,5.98,1.56s4.2-.52,5.98-1.56Z"/>
</svg>