<?xml version="1.0" encoding="utf-8"?><!-- Uploaded to: SVG Repo, www.svgrepo.com, Generator: SVG Repo Mixer Tools -->
<svg fill="#000000" width="800px" height="800px" viewBox="0 0 24 24" id="invoice-euro" data-name="Line Color" xmlns="http://www.w3.org/2000/svg" class="icon line-color"><path id="secondary" d="M14,17H8m3-4H8m6-3h3" style="fill: none; stroke: rgb(44, 169, 188); stroke-linecap: round; stroke-linejoin: round; stroke-width: 2;"></path><path id="secondary-2" data-name="secondary" d="M20,7.77A3,3,0,0,0,18,7h0a3,3,0,0,0-3,3h0a3,3,0,0,0,3,3h0a3,3,0,0,0,2-.77" style="fill: none; stroke: rgb(44, 169, 188); stroke-linecap: round; stroke-linejoin: round; stroke-width: 2;"></path><path id="primary" d="M18,18v2a1,1,0,0,1-1,1H5a1,1,0,0,1-1-1V4A1,1,0,0,1,5,3H17" style="fill: none; stroke: rgb(0, 0, 0); stroke-linecap: round; stroke-linejoin: round; stroke-width: 2;"></path></svg>